<svg width="282" height="280" viewBox="0 0 282 280" fill="none" xmlns="http://www.w3.org/2000/svg">
   <path opacity="0.2" d="M0.03125 140L140.656 280L281.281 140L140.656 0L0.03125 140ZM138.816 59.7764L70.9124 111.594L6.0523 137.069L139.519 4.19595L138.816 59.7764ZM190.798 128.244L124.098 179.129L72.9863 112.726L139.686 61.8411L190.798 128.244ZM71.0796 113.858L122.861 181.127L138.984 275.304L3.51005 140.433L71.0796 113.858ZM125.102 181.127L192.638 129.577L277.401 140.766L141.359 276.204L125.102 181.127ZM192.939 127.445L140.991 59.9762L141.727 4.12937L276.699 138.501L192.939 127.445Z" fill="black"/>
</svg>
