<svg width="210" height="193" viewBox="0 0 210 193" fill="none" xmlns="http://www.w3.org/2000/svg">
<path d="M0 102V193H91V102H0ZM71 120.8L32.2 115.7L2.90002 103H89.3L71 120.8ZM65.6 159.9L27.5 154.9L32.5 116.8L70.6 121.8L65.6 159.9ZM31.5 116.5L26.4 155.1L1 190.9V103.2L31.5 116.5ZM27.1 155.8L65.7 160.9L89.5 192H1.5L27.1 155.8ZM66.5 160.3L71.6 121.6L90 103.7V191L66.5 160.3Z" fill="white"/>
<path d="M209.6 37.4004H69.5004L47.4004 73.6004" stroke="#999999" stroke-miterlimit="10"/>
<path d="M44.3002 71.4006C43.2002 73.2006 43.8003 75.5006 45.5003 76.6006C47.3003 77.7006 49.6003 77.1006 50.7003 75.4006C51.8003 73.6006 51.2003 71.3006 49.5003 70.2006C47.7003 69.1006 45.4002 69.7006 44.3002 71.4006Z" fill="#999999"/>
<path d="M83.28 16.4447H81.216V24.0527H80.16V8.04473H83.256C84.616 8.04473 85.736 8.41273 86.616 9.14873C87.496 9.86873 87.936 10.8927 87.936 12.2207C87.936 13.5327 87.512 14.5647 86.664 15.3167C85.816 16.0687 84.688 16.4447 83.28 16.4447ZM81.216 9.00473V15.4847H83.328C84.384 15.4847 85.232 15.1967 85.872 14.6207C86.512 14.0287 86.832 13.2367 86.832 12.2447C86.832 11.2367 86.504 10.4447 85.848 9.86873C85.208 9.29273 84.312 9.00473 83.16 9.00473H81.216ZM111.295 24.0527L109.159 18.7967H102.343L100.207 24.0527H99.0548L105.799 7.56473L112.447 24.0527H111.295ZM102.727 17.8367H108.775L105.775 10.2527L102.727 17.8367ZM130.061 16.4447H127.997V24.0527H126.941V8.04473H130.037C131.397 8.04473 132.517 8.41273 133.397 9.14873C134.277 9.86873 134.717 10.8927 134.717 12.2207C134.717 13.5327 134.293 14.5647 133.445 15.3167C132.597 16.0687 131.469 16.4447 130.061 16.4447ZM127.997 9.00473V15.4847H130.109C131.165 15.4847 132.013 15.1967 132.653 14.6207C133.293 14.0287 133.613 13.2367 133.613 12.2447C133.613 11.2367 133.285 10.4447 132.629 9.86873C131.989 9.29273 131.093 9.00473 129.941 9.00473H127.997ZM157.332 8.04473V9.00473H150.708V14.8127H157.188V15.7727H150.708V23.0927H157.332V24.0527H149.652V8.04473H157.332ZM180.705 24.0527H179.505L174.321 16.4927H173.841V24.0527H172.785V8.04473H175.089C176.545 8.04473 177.673 8.31673 178.473 8.86073C179.577 9.62873 180.129 10.7727 180.129 12.2927C180.129 13.1727 179.913 13.9647 179.481 14.6687C179.049 15.3567 178.369 15.8607 177.441 16.1807C176.833 16.3887 176.177 16.4927 175.473 16.4927L180.705 24.0527ZM173.841 9.00473V15.5327H175.377C176.513 15.5327 177.401 15.2447 178.041 14.6687C178.697 14.0927 179.025 13.2927 179.025 12.2687C179.025 10.9247 178.553 9.99673 177.609 9.48473C177.049 9.16473 176.233 9.00473 175.161 9.00473H173.841ZM204.076 10.1087L203.308 10.7567C202.636 9.44473 201.588 8.78873 200.164 8.78873C199.252 8.78873 198.524 9.07673 197.98 9.65273C197.452 10.2287 197.188 10.9327 197.188 11.7647C197.188 12.1807 197.244 12.5407 197.356 12.8447C197.484 13.1487 197.7 13.4287 198.004 13.6847C198.324 13.9407 198.604 14.1407 198.844 14.2847C199.084 14.4127 199.468 14.6047 199.996 14.8607C201.724 15.6927 202.788 16.2527 203.188 16.5407C204.324 17.3247 204.892 18.3567 204.892 19.6367C204.892 20.9647 204.404 22.0767 203.428 22.9727C202.452 23.8687 201.276 24.3167 199.9 24.3167C198.38 24.3167 197.14 23.7567 196.18 22.6367C195.716 22.0927 195.372 21.5087 195.148 20.8847L196.06 20.4527C196.252 21.0287 196.54 21.5407 196.924 21.9887C197.644 22.9007 198.644 23.3567 199.924 23.3567C201.012 23.3567 201.924 23.0047 202.66 22.3007C203.412 21.5967 203.788 20.7167 203.788 19.6607C203.788 18.6207 203.268 17.7807 202.228 17.1407C201.764 16.8687 200.86 16.4047 199.516 15.7487C198.636 15.3167 197.988 14.9647 197.572 14.6927C197.172 14.4207 196.844 14.0687 196.588 13.6367C196.252 13.0767 196.084 12.4687 196.084 11.8127C196.084 10.7727 196.436 9.85273 197.14 9.05273C197.844 8.23673 198.86 7.82873 200.188 7.82873C201.004 7.82873 201.756 8.02873 202.444 8.42873C203.132 8.81273 203.676 9.37273 204.076 10.1087Z" fill="white"/>
</svg>
