<svg width="70" height="66" viewBox="0 0 70 66" fill="none" xmlns="http://www.w3.org/2000/svg">
<path d="M21 0.891602V26.5319H50V0.891602H21ZM43.6264 6.21694L31.2615 4.77993L21.9242 1.20157H49.4582L43.6264 6.21694ZM41.8736 17.2056L29.7319 15.7968L31.3253 5.06169L43.467 6.4705L41.8736 17.2056ZM31.0385 4.97715L29.4132 15.8532L21.3187 25.9403V1.25791L31.0385 4.97715ZM29.6363 16.0786L41.9374 17.5155L49.522 26.2784H21.478L29.6363 16.0786ZM42.1923 17.3465L43.8176 6.44229L49.6813 1.39879V25.9966L42.1923 17.3465Z" fill="white"/>
<path d="M3.79344 58.8264H2.41744V63.8984H1.71344V53.2264H3.77744C4.6841 53.2264 5.43077 53.4718 6.01744 53.9624C6.6041 54.4424 6.89744 55.1251 6.89744 56.0104C6.89744 56.8851 6.61477 57.5731 6.04944 58.0744C5.4841 58.5758 4.7321 58.8264 3.79344 58.8264ZM2.41744 53.8664V58.1864H3.82544C4.52944 58.1864 5.09477 57.9944 5.52144 57.6104C5.9481 57.2158 6.16144 56.6878 6.16144 56.0264C6.16144 55.3544 5.94277 54.8264 5.50544 54.4424C5.07877 54.0584 4.48144 53.8664 3.71344 53.8664H2.41744ZM19.2699 63.8984L17.8459 60.3944H13.3019L11.8779 63.8984H11.1099L15.6059 52.9064L20.0379 63.8984H19.2699ZM13.5579 59.7544H17.5899L15.5899 54.6984L13.5579 59.7544ZM28.5809 58.8264H27.2049V63.8984H26.5009V53.2264H28.5649C29.4716 53.2264 30.2183 53.4718 30.8049 53.9624C31.3916 54.4424 31.6849 55.1251 31.6849 56.0104C31.6849 56.8851 31.4023 57.5731 30.8369 58.0744C30.2716 58.5758 29.5196 58.8264 28.5809 58.8264ZM27.2049 53.8664V58.1864H28.6129C29.3169 58.1864 29.8823 57.9944 30.3089 57.6104C30.7356 57.2158 30.9489 56.6878 30.9489 56.0264C30.9489 55.3544 30.7303 54.8264 30.2929 54.4424C29.8663 54.0584 29.2689 53.8664 28.5009 53.8664H27.2049ZM43.5616 53.2264V53.8664H39.1456V57.7384H43.4656V58.3784H39.1456V63.2584H43.5616V63.8984H38.4416V53.2264H43.5616ZM55.9434 63.8984H55.1434L51.6874 58.8584H51.3674V63.8984H50.6634V53.2264H52.1994C53.1701 53.2264 53.9221 53.4078 54.4554 53.7704C55.1914 54.2824 55.5594 55.0451 55.5594 56.0584C55.5594 56.6451 55.4154 57.1731 55.1274 57.6424C54.8394 58.1011 54.3861 58.4371 53.7674 58.6504C53.3621 58.7891 52.9248 58.8584 52.4554 58.8584L55.9434 63.8984ZM51.3674 53.8664V58.2184H52.3914C53.1488 58.2184 53.7408 58.0264 54.1674 57.6424C54.6048 57.2584 54.8234 56.7251 54.8234 56.0424C54.8234 55.1464 54.5088 54.5278 53.8794 54.1864C53.5061 53.9731 52.9621 53.8664 52.2474 53.8664H51.3674ZM68.3238 54.6024L67.8118 55.0344C67.3638 54.1598 66.6651 53.7224 65.7158 53.7224C65.1078 53.7224 64.6225 53.9144 64.2598 54.2984C63.9078 54.6824 63.7318 55.1518 63.7318 55.7064C63.7318 55.9838 63.7691 56.2238 63.8438 56.4264C63.9291 56.6291 64.0731 56.8158 64.2758 56.9864C64.4891 57.1571 64.6758 57.2904 64.8358 57.3864C64.9958 57.4718 65.2518 57.5998 65.6038 57.7704C66.7558 58.3251 67.4651 58.6984 67.7318 58.8904C68.4891 59.4131 68.8678 60.1011 68.8678 60.9544C68.8678 61.8398 68.5425 62.5811 67.8918 63.1784C67.2411 63.7758 66.4571 64.0744 65.5398 64.0744C64.5265 64.0744 63.6998 63.7011 63.0598 62.9544C62.7505 62.5918 62.5211 62.2024 62.3718 61.7864L62.9798 61.4984C63.1078 61.8824 63.2998 62.2238 63.5558 62.5224C64.0358 63.1304 64.7025 63.4344 65.5558 63.4344C66.2811 63.4344 66.8891 63.1998 67.3798 62.7304C67.8811 62.2611 68.1318 61.6744 68.1318 60.9704C68.1318 60.2771 67.7851 59.7171 67.0918 59.2904C66.7825 59.1091 66.1798 58.7998 65.2838 58.3624C64.6971 58.0744 64.2651 57.8398 63.9878 57.6584C63.7211 57.4771 63.5025 57.2424 63.3318 56.9544C63.1078 56.5811 62.9958 56.1758 62.9958 55.7384C62.9958 55.0451 63.2305 54.4318 63.6998 53.8984C64.1691 53.3544 64.8465 53.0824 65.7318 53.0824C66.2758 53.0824 66.7771 53.2158 67.2358 53.4824C67.6945 53.7384 68.0571 54.1118 68.3238 54.6024Z" fill="white"/>
</svg>
