<svg width="47" height="69" viewBox="0 0 47 69" fill="none" xmlns="http://www.w3.org/2000/svg">
<path d="M24 0.472656L7 15.0022L24 29.5317L41 15.0022L24 0.472656ZM23.8346 9.80096V9.88577L7.85993 14.663L23.8346 1.00971V9.80096ZM23.8346 10.1967V28.9946L7.52919 15.0587L23.8346 10.1967ZM24.1654 10.1967L40.4708 15.0587L24.1654 28.9946V10.1967ZM24.1654 9.914V1.03801L40.1401 14.6913L24.1654 9.914Z" fill="white"/>
<path d="M3.92156 61.8264H2.54556V66.8984H1.84156V56.2264H3.90556C4.81223 56.2264 5.5589 56.4718 6.14556 56.9624C6.73223 57.4424 7.02556 58.1251 7.02556 59.0104C7.02556 59.8851 6.7429 60.5731 6.17756 61.0744C5.61223 61.5758 4.86023 61.8264 3.92156 61.8264ZM2.54556 56.8664V61.1864H3.95356C4.65756 61.1864 5.2229 60.9944 5.64956 60.6104C6.07623 60.2158 6.28956 59.6878 6.28956 59.0264C6.28956 58.3544 6.0709 57.8264 5.63356 57.4424C5.2069 57.0584 4.60956 56.8664 3.84156 56.8664H2.54556ZM19.3981 66.8984L17.9741 63.3944H13.4301L12.0061 66.8984H11.2381L15.7341 55.9064L20.1661 66.8984H19.3981ZM13.6861 62.7544H17.7181L15.7181 57.6984L13.6861 62.7544ZM30.8249 56.8664H28.0569V66.8984H27.3529V56.8664H24.5849V56.2264H30.8249V56.8664ZM37.9924 56.2264V60.7544H44.4564V56.2264H45.1604V66.8984H44.4564V61.3944H37.9924V66.8984H37.2884V56.2264H37.9924Z" fill="white"/>
</svg>
