<svg width="84" height="68" viewBox="0 0 84 68" fill="none" xmlns="http://www.w3.org/2000/svg">
<path d="M26.297 0.327148L26 0.496402V22.7215L26.297 22.8907H39.2V0.327148H26.297ZM38.474 0.609192L32.6 4.21937L26.726 0.609192H38.474ZM26.33 0.722051L32.435 4.50141V19.3087L26.33 22.5522V0.722051ZM26.825 22.6086L32.6 19.5344L38.375 22.6086H26.825ZM38.87 22.5522L32.765 19.3087V4.50141L38.87 0.722051V22.5522ZM59 5.96803H46.097L45.8 6.13728V28.3624L46.097 28.5316H59V5.96803ZM58.274 6.25007L52.4 9.86025L46.526 6.25007H58.274ZM46.13 6.36293L52.235 10.1423V24.9496L46.13 28.1931V6.36293ZM46.625 28.2495L52.4 25.1753L58.175 28.2495H46.625ZM58.67 28.1931L52.565 24.9496V10.1423L58.67 6.36293V28.1931Z" fill="white"/>
<path d="M6.55619 55.8664H3.78819V65.8984H3.08419V55.8664H0.316186V55.2264H6.55619V55.8664ZM18.1397 55.2264V55.8664H13.7237V59.7384H18.0437V60.3784H13.7237V65.2584H18.1397V65.8984H13.0197V55.2264H18.1397ZM30.6176 56.6024L30.1056 57.0344C29.6576 56.1598 28.9589 55.7224 28.0096 55.7224C27.4016 55.7224 26.9162 55.9144 26.5536 56.2984C26.2016 56.6824 26.0256 57.1518 26.0256 57.7064C26.0256 57.9838 26.0629 58.2238 26.1376 58.4264C26.2229 58.6291 26.3669 58.8158 26.5696 58.9864C26.7829 59.1571 26.9696 59.2904 27.1296 59.3864C27.2896 59.4718 27.5456 59.5998 27.8976 59.7704C29.0496 60.3251 29.7589 60.6984 30.0256 60.8904C30.7829 61.4131 31.1616 62.1011 31.1616 62.9544C31.1616 63.8398 30.8362 64.5811 30.1856 65.1784C29.5349 65.7758 28.7509 66.0744 27.8336 66.0744C26.8202 66.0744 25.9936 65.7011 25.3536 64.9544C25.0442 64.5918 24.8149 64.2024 24.6656 63.7864L25.2736 63.4984C25.4016 63.8824 25.5936 64.2238 25.8496 64.5224C26.3296 65.1304 26.9962 65.4344 27.8496 65.4344C28.5749 65.4344 29.1829 65.1998 29.6736 64.7304C30.1749 64.2611 30.4256 63.6744 30.4256 62.9704C30.4256 62.2771 30.0789 61.7171 29.3856 61.2904C29.0762 61.1091 28.4736 60.7998 27.5776 60.3624C26.9909 60.0744 26.5589 59.8398 26.2816 59.6584C26.0149 59.4771 25.7962 59.2424 25.6256 58.9544C25.4016 58.5811 25.2896 58.1758 25.2896 57.7384C25.2896 57.0451 25.5242 56.4318 25.9936 55.8984C26.4629 55.3544 27.1402 55.0824 28.0256 55.0824C28.5696 55.0824 29.0709 55.2158 29.5296 55.4824C29.9882 55.7384 30.3509 56.1118 30.6176 56.6024ZM42.6281 55.8664H39.8601V65.8984H39.1561V55.8664H36.3881V55.2264H42.6281V55.8664ZM49.7956 65.8984H49.0916V55.1144L58.0516 64.4904V55.2264H58.7556V66.1704L49.7956 56.7944V65.8984ZM71.5584 55.2264V55.8664H67.1424V59.7384H71.4624V60.3784H67.1424V65.2584H71.5584V65.8984H66.4384V55.2264H71.5584ZM83.6843 55.8664H80.9163V65.8984H80.2123V55.8664H77.4443V55.2264H83.6843V55.8664Z" fill="white"/>
</svg>
