<svg width="180" height="199" viewBox="0 0 180 199" fill="none" xmlns="http://www.w3.org/2000/svg">
<path d="M51.4996 96.0996L0.0996094 147.5L51.4996 198.9L102.9 147.5L51.4996 96.0996ZM50.9996 129.1V129.4L2.69965 146.3L50.9996 97.9996V129.1ZM50.9996 130.5V197L1.69965 147.7L50.9996 130.5ZM51.9996 130.5L101.3 147.7L51.9996 197V130.5ZM51.9996 129.4V97.9996L100.3 146.3L51.9996 129.4Z" fill="white"/>
<path d="M179.1 37.4004H73.5004L51.4004 73.6004" stroke="#999999" stroke-miterlimit="10"/>
<path d="M48.3002 71.4006C47.2002 73.2006 47.8003 75.5006 49.5003 76.6006C51.2003 77.7006 53.6003 77.1006 54.7003 75.4006C55.8003 73.6006 55.2003 71.3006 53.5003 70.2006C51.7003 69.1006 49.3002 69.7006 48.3002 71.4006Z" fill="#999999"/>
<path d="M85.28 16.4447H83.216V24.0527H82.16V8.04473H85.256C86.616 8.04473 87.736 8.41273 88.616 9.14873C89.496 9.86873 89.936 10.8927 89.936 12.2207C89.936 13.5327 89.512 14.5647 88.664 15.3167C87.816 16.0687 86.688 16.4447 85.28 16.4447ZM83.216 9.00473V15.4847H85.328C86.384 15.4847 87.232 15.1967 87.872 14.6207C88.512 14.0287 88.832 13.2367 88.832 12.2447C88.832 11.2367 88.504 10.4447 87.848 9.86873C87.208 9.29273 86.312 9.00473 85.16 9.00473H83.216ZM113.295 24.0527L111.159 18.7967H104.343L102.207 24.0527H101.055L107.799 7.56473L114.447 24.0527H113.295ZM104.727 17.8367H110.775L107.775 10.2527L104.727 17.8367ZM135.235 9.00473H131.083V24.0527H130.027V9.00473H125.875V8.04473H135.235V9.00473ZM150.786 8.04473V14.8367H160.482V8.04473H161.538V24.0527H160.482V15.7967H150.786V24.0527H149.73V8.04473H150.786Z" fill="white"/>
</svg>
