<svg width="245" height="198" viewBox="0 0 245 198" fill="none" xmlns="http://www.w3.org/2000/svg">
    <path d="M244.399 37.4004H75.4988L53.2988 73.6004" stroke="#999999" stroke-miterlimit="10"/>
    <path d="M50.1987 71.4006C49.0987 73.2006 49.6987 75.5006 51.3987 76.6006C53.1987 77.7006 55.4987 77.1006 56.5987 75.4006C57.6987 73.6006 57.0987 71.3006 55.3987 70.2006C53.5987 69.1006 51.2987 69.7006 50.1987 71.4006Z" fill="#999999"/>
    <path d="M95.3991 9.00473H91.2471V24.0527H90.1911V9.00473H86.0391V8.04473H95.3991V9.00473ZM117.574 8.04473V9.00473H110.95V14.8127H117.43V15.7727H110.95V23.0927H117.574V24.0527H109.894V8.04473H117.574ZM141.091 10.1087L140.323 10.7567C139.651 9.44473 138.603 8.78873 137.179 8.78873C136.267 8.78873 135.539 9.07673 134.995 9.65273C134.467 10.2287 134.203 10.9327 134.203 11.7647C134.203 12.1807 134.259 12.5407 134.371 12.8447C134.499 13.1487 134.715 13.4287 135.019 13.6847C135.339 13.9407 135.619 14.1407 135.859 14.2847C136.099 14.4127 136.483 14.6047 137.011 14.8607C138.739 15.6927 139.803 16.2527 140.203 16.5407C141.339 17.3247 141.907 18.3567 141.907 19.6367C141.907 20.9647 141.419 22.0767 140.443 22.9727C139.467 23.8687 138.291 24.3167 136.915 24.3167C135.395 24.3167 134.155 23.7567 133.195 22.6367C132.731 22.0927 132.387 21.5087 132.163 20.8847L133.075 20.4527C133.267 21.0287 133.555 21.5407 133.939 21.9887C134.659 22.9007 135.659 23.3567 136.939 23.3567C138.027 23.3567 138.939 23.0047 139.675 22.3007C140.427 21.5967 140.803 20.7167 140.803 19.6607C140.803 18.6207 140.283 17.7807 139.243 17.1407C138.779 16.8687 137.875 16.4047 136.531 15.7487C135.651 15.3167 135.003 14.9647 134.587 14.6927C134.187 14.4207 133.859 14.0687 133.603 13.6367C133.267 13.0767 133.099 12.4687 133.099 11.8127C133.099 10.7727 133.451 9.85273 134.155 9.05273C134.859 8.23673 135.875 7.82873 137.203 7.82873C138.019 7.82873 138.771 8.02873 139.459 8.42873C140.147 8.81273 140.691 9.37273 141.091 10.1087ZM163.907 9.00473H159.755V24.0527H158.699V9.00473H154.547V8.04473H163.907V9.00473ZM179.458 24.0527H178.402V7.87673L191.842 21.9407V8.04473H192.898V24.4607L179.458 10.3967V24.0527ZM216.903 8.04473V9.00473H210.279V14.8127H216.759V15.7727H210.279V23.0927H216.903V24.0527H209.223V8.04473H216.903ZM239.891 9.00473H235.739V24.0527H234.683V9.00473H230.531V8.04473H239.891V9.00473Z" fill="white"/>
    <path d="M1.09924 97.4004L0.199219 98.0004V176.8L1.09924 177.4H40.1992V97.4004H1.09924ZM37.9993 98.4004L20.1992 111.2L2.39929 98.4004H37.9993ZM1.19922 98.7004L19.6992 112.1V164.6L1.19922 176.1V98.7004ZM2.79932 176.4L20.2993 165.5L37.7993 176.4H2.79932ZM39.1992 176.2L20.6992 164.7V112.2L39.1992 98.8004V176.2ZM100.199 117.4H61.0992L60.1992 118V196.8L61.0992 197.4H100.199V117.4ZM97.9993 118.4L80.1992 131.2L62.3993 118.4H97.9993ZM61.1992 118.7L79.6992 132.1V184.6L61.1992 196.1V118.7ZM62.7993 196.4L80.2993 185.5L97.7993 196.4H62.7993ZM99.1992 196.2L80.6992 184.7V132.2L99.1992 118.8V196.2Z" fill="white"/>
</svg>
